# AST/ASF file generated using VICON BodyLanguage
# -----------------------------------------------
:version 1.10
:name VICON
:units
  mass 1.0
  length 0.45
  angle deg
:documentation
   .ast/.asf automatically generated from VICON data using
   VICON BodyBuilder and BodyLanguage model FoxedUp or BRILLIANT.MOD
:root
   order TX TY TZ RX RY RZ
   axis XYZ
   position 0 0 0  
   orientation 0 0 0 
:bonedata
  begin
     id 1 
     name lhipjoint
     direction 0.440178 -0.822639 0.359871 
     length 2.53113 
     axis 0 0 0  XYZ
  end
  begin
     id 2 
     name lfemur
     direction 0.34202 -0.939693 0  
     length 7.88132  
     axis 0 0 20  XYZ
    dof rx ry rz
    limits (-160.0 20.0)
           (-70.0 70.0)
           (-60.0 70.0)
  end
  begin
     id 3 
     name ltibia
     direction 0.34202 -0.939693 0   
     length 8.43783   
     axis 0 0 20   XYZ
    dof rx
    limits (-10.0 170.0)
  end
  begin
     id 4 
     name lfoot
     direction 0.0886351 -0.243523 0.965837   
     length 2.63414   
     axis -90 7.62852e-016 20   XYZ
    dof rx rz
    limits (-45.0 90.0)
           (-70.0 20.0)
  end
  begin
     id 5 
     name ltoes
     direction 1.53703e-011 -4.21717e-011 1   
     length 1.31427   
     axis -90 7.62852e-016 20   XYZ
    dof rx
    limits (-90.0 20.0)
  end
  begin
     id 6 
     name rhipjoint
     direction -0.399779 -0.839773 0.367367   
     length 2.47948  
     axis 0 0 0  XYZ 
  end
  begin
     id 7 
     name rfemur
     direction -0.34202 -0.939693 0   
     length 7.74806   
     axis 0 0 -20   XYZ
    dof rx ry rz
    limits (-160.0 20.0)
           (-70.0 70.0)
           (-70.0 60.0)
  end
  begin
     id 8 
     name rtibia
     direction -0.34202 -0.939693 0   
     length 8.74432   
     axis 0 0 -20   XYZ
    dof rx
    limits (-10.0 170.0)
 end
 begin
     id 9 
     name rfoot
     direction -0.108514 -0.298139 0.948334   
     length 2.66102  
     axis -90 -7.62852e-016 -20   XYZ
    dof rx rz
    limits (-45.0 90.0)
           (-20.0 70.0)
  end
  begin
     id 10 
     name rtoes
     direction -1.53392e-011 -4.22077e-011 1   
     length 1.31983   
     axis -90 -7.62852e-016 -20   XYZ
    dof rx
    limits (-90.0 20.0)
  end
  begin
     id 11 
     name lowerback
     direction 0.0113257 0.999866 0.0118602   
     length 2.58694   
     axis 0 0 0   XYZ
    dof rx ry rz
    limits (-20.0 45.0)
           (-30.0 30.0)
           (-30.0 30.0)
  end
  begin
     id 12 
     name upperback
     direction -0.0164747 0.995193 -0.0965375   
     length 2.52368   
     axis 0 0 0   XYZ
    dof rx ry rz
    limits (-20.0 45.0)
           (-30.0 30.0)
           (-30.0 30.0)
  end
  begin
     id 13 
     name thorax
     direction -0.0194301 0.99433 -0.104552   
     length 2.56099   
     axis 0 0 0   XYZ
    dof rx ry rz
    limits (-20.0 45.0)
           (-30.0 30.0)
           (-30.0 30.0)
  end
  begin
     id 14 
     name lowerneck
     direction 0.0148543 0.995587 -0.092657   
     length 1.71582   
     axis 0 0 0   XYZ
    dof rx ry rz
    limits (-20.0 45.0)
           (-30.0 30.0)
           (-30.0 30.0)
  end
  begin
     id 15 
     name upperneck
     direction -0.0135467 0.993656 -0.111639   
     length 1.68937   
     axis 0 0 0   XYZ
    dof rx ry rz
    limits (-20.0 45.0)
           (-30.0 30.0)
           (-30.0 30.0)
  end
  begin
     id 16
     name head
     direction -0.00615349 0.999547 -0.029448  
     length 1.7462  
     axis 0 0 0   XYZ
    dof rx ry rz
    limits (-20.0 45.0)
           (-30.0 30.0)
           (-30.0 30.0)
  end
  begin
     id 17 
     name lclavicle
     direction 0.988267 0.149885 0.0293713  
     length 4.47222  
     axis 0 0 0   XYZ
    dof ry rz
    limits (-20.0 10.0)
           (0.0 20.0)
  end
  begin
     id 18 
     name lhumerus
     direction 1 -4.48986e-011 -1.14833e-027   
     length 5.37148   
     axis 180 -30 -90   XYZ
    dof rx ry rz
    limits (-60.0 90.0)
           (-90.0 90.0)
           (-90.0 90.0)
  end
  begin
     id 19
     name lradius
     direction 0.999998 0.00170963 -0.000987055   
     length 3.94212   
     axis 180 -30 -90   XYZ
    dof rx
    limits (-10.0 170.0)
  end
  begin
     id 20
     name lwrist
     direction 0.999998 7.53149e-005 -0.00194706   
     length 1.97106   
     axis 4.65056e-015 90 90   XYZ
    dof ry
    limits (-180.0 0.0)
 end
  begin
     id 21 
     name lhand
     direction 1 -4.48973e-011 -1.31746e-026   
     length 1.17917   
     axis 8.4065e-015 90 90   XYZ
    dof rx rz
    limits (-90.0 90.0)
           (-45.0 45.0)
  end
  begin
     id 22 
     name lfingers
     direction 1 -4.49107e-011 -2.63492e-026   
     length 0.950679   
     axis 1.6813e-014 90 90   XYZ
    dof rx
    limits (0.0 90.0)
  end
  begin
     id 23
     name lthumb
     direction 0.707107 -6.35048e-011 0.707107   
     length 1.36499   
     axis -90 45 2.85299e-015   XYZ
    dof rx rz
    limits (-45.0 45.0)
           (-45.0 45.0)
  end
  begin
     id 24 
     name rclavicle
     direction -0.996699 0.0642895 -0.0495725   
     length 4.62611  
     axis 0 0 0   XYZ 
    dof ry rz
    limits (-10.0 20.0)
           (-20.0 0.0)
  end
  begin
     id 25 
     name rhumerus
     direction -1 -4.48919e-011 -2.41059e-027  
     length 5.4981   
     axis 180 30 90   XYZ
    dof rx ry rz
    limits (-90.0 60.0)
           (-90.0 90.0)
           (-90.0 90.0)
  end
  begin
     id 26 
     name rradius
     direction -0.999999 0.00118101 -0.000681858   
     length 3.48381   
     axis 180 30 90   XYZ
    dof rx
    limits (-10.0 170.0)
  end
  begin
     id 27 
     name rwrist
     direction -0.999999 0.000321823 -0.00132288   
     length 1.7419   
     axis 4.65056e-015 -90 -90   XYZ
    dof ry
    limits (-180.0 0.0)
  end
  begin
     id 28
     name rhand
     direction -1 -4.49022e-011 -1.31746e-026   
     length 1.34932   
     axis 8.4065e-015 -90 -90   XYZ
    dof rx rz
    limits (-90.0 90.0)
           (-45.0 45.0)
  end
  begin
     id 29
     name rfingers
     direction -1 -4.49178e-011 -2.63492e-026   
     length 1.08785   
     axis 1.6813e-014 -90 -90   XYZ
    dof rx
    limits (0.0 90.0)
  end
  begin
     id 30
     name rthumb
     direction -0.707107 -6.34713e-011 0.707107   
     length 1.56195   
     axis -90 -45 -2.85299e-015   XYZ
    dof rx rz
    limits (-45.0 45.0)
           (-45.0 45.0)
  end
:hierarchy
  begin
    root lhipjoint rhipjoint lowerback
    lhipjoint lfemur
    lfemur ltibia
    ltibia lfoot
    lfoot ltoes
    rhipjoint rfemur
    rfemur rtibia
    rtibia rfoot
    rfoot rtoes
    lowerback upperback
    upperback thorax
    thorax lowerneck lclavicle rclavicle
    lowerneck upperneck
    upperneck head
    lclavicle lhumerus
    lhumerus lradius
    lradius lwrist
    lwrist lhand lthumb
    lhand lfingers
    rclavicle rhumerus
    rhumerus rradius
    rradius rwrist
    rwrist rhand rthumb
    rhand rfingers
  end

#!OML:ASF X:\für Bonn\!DataBase\2005_08_10_Bjorn_Final\c3d\bjorn.ASF
:FULLY-SPECIFIED
:DEGREES
16
root 1.20806 19.0338 1.60601 498.604 83.658 -580.515
lowerback 4.51807 1.41958 3.0736
upperback 9.88355 2.32933 0.46357
thorax 7.93694 1.5616 -1.14007
lowerneck 1.44013 -4.87051 3.96808
upperneck 10.768 -5.98578 -3.99083
head 2.9516 -2.83411 -2.09176
rclavicle -1.90833e-014 -7.95139e-016
rhumerus -12.6241 -8.7959 -85.8645
rradius 32.7453
rwrist -3.75193
rhand -20.1262 11.8831
rfingers 7.12502
rthumb 6.21796 -18.0057
lclavicle -1.90833e-014 -7.95139e-016
lhumerus -31.2316 -16.5488 92.0481
lradius 27.0991
lwrist -23.6533
lhand -12.7593 -9.26084
lfingers 7.12502
lthumb 13.3252 20.2931
rfemur -21.1044 -10.6795 14.1465
rtibia 37.9557
rfoot -9.30919 14.0978
rtoes 2.18133
lfemur -21.3084 11.7607 -23.1835
ltibia 44.1826
lfoot -16.2172 -0.505589
ltoes -22.5074
17
root 1.27607 19.0095 1.62087 498.338 83.5786 -580.762
lowerback 4.90636 1.46914 2.8229
upperback 10.0583 2.4331 0.389718
thorax 7.90182 1.60876 -1.0841
lowerneck 1.46645 -4.95543 4.03423
upperneck 10.4594 -6.11807 -3.95398
head 2.83517 -2.90246 -2.08216
rclavicle 5.92378e-014 1.66979e-014
rhumerus -11.9907 -8.13246 -85.9867
rradius 33.2096
rwrist -3.92637
rhand -20.5517 12.2658
rfingers 7.12502
rthumb 5.80718 -17.6347
lclavicle 5.92378e-014 1.66979e-014
lhumerus -30.7519 -16.8386 91.813
lradius 27.3797
lwrist -23.3289
lhand -13.304 -9.34651
lfingers 7.12502
lthumb 12.8002 20.2411
rfemur -21.1386 -10.7072 14.0929
rtibia 38.5276
rfoot -9.79804 14.1758
rtoes 2.32523
lfemur -21.9806 11.6967 -23.3427
ltibia 43.3447
lfoot -16.3223 -0.972033
ltoes -21.1663
18
root 1.34238 18.9871 1.63476 498.011 83.5057 -581.058
lowerback 5.31906 1.52947 2.6049
upperback 10.2418 2.55311 0.297559
thorax 7.86619 1.66816 -1.06667
lowerneck 1.38241 -5.05989 4.11932
upperneck 10.2053 -6.27873 -3.93677
head 2.7555 -2.98548 -2.0882
rclavicle 3.10104e-014 -1.35174e-014
rhumerus -11.3505 -7.60162 -86.0886
rradius 33.6536
rwrist -3.89706
rhand -20.9541 12.6574
rfingers 7.12502
rthumb 5.41866 -17.2533
lclavicle 3.10104e-014 -1.35174e-014
lhumerus -30.1975 -17.1366 91.56
lradius 27.6046
lwrist -23.0357
lhand -13.8702 -9.47815
lfingers 7.12502
lthumb 12.2543 20.1428
rfemur -21.1575 -10.7517 14.0299
rtibia 39.0693
rfoot -10.2706 14.2755
rtoes 2.34816
lfemur -22.6355 11.5781 -23.4787
ltibia 42.564
lfoot -16.3757 -1.39658
ltoes -20.5191
19
root 1.40703 18.9641 1.64916 498.005 83.4463 -580.99
lowerback 5.75987 1.56823 2.42545
upperback 10.4538 2.64707 0.209026
thorax 7.84724 1.71953 -1.06834
lowerneck 1.25894 -5.15317 4.19703
upperneck 9.94762 -6.42811 -3.90351
head 2.68321 -3.06362 -2.08891
rclavicle -2.50469e-014 -1.27222e-014
rhumerus -10.6775 -7.03345 -86.1776
rradius 34.0569
rwrist -3.8799
rhand -21.4161 13.1383
rfingers 7.12502
rthumb 4.9726 -16.7833
lclavicle -2.50469e-014 -1.27222e-014
lhumerus -29.5486 -17.4008 91.2756
lradius 27.7632
lwrist -22.7987
lhand -14.54 -9.64516
lfingers 7.12502
lthumb 11.6084 20.0133
rfemur -21.1168 -10.8063 14.0107
rtibia 39.5857
rfoot -10.7399 14.3661
rtoes 2.48193
lfemur -23.238 11.4033 -23.5343
ltibia 41.8474
lfoot -16.2999 -1.7902
ltoes -20.0771
20
root 1.46939 18.9417 1.6637 497.866 83.4015 -581.058
lowerback 6.21479 1.61529 2.24478
upperback 10.6858 2.75419 0.114119
thorax 7.84419 1.77916 -1.07656
lowerneck 0.997257 -5.22514 4.28867
upperneck 9.75038 -6.55626 -3.85366
head 2.65762 -3.13125 -2.09369
rclavicle -1.03368e-014 2.38542e-014
rhumerus -9.94441 -6.49344 -86.2289
rradius 34.4101
rwrist -3.81223
rhand -21.8132 13.6409
rfingers 7.12502
rthumb 4.58918 -16.2894
lclavicle -1.03368e-014 2.38542e-014
lhumerus -28.8015 -17.6307 90.9618
lradius 27.8878
lwrist -22.5863
lhand -15.2654 -9.87964
lfingers 7.12502
lthumb 10.9088 19.817
rfemur -21.0933 -10.7991 13.9862
rtibia 40.1067
rfoot -11.196 14.4163
rtoes 2.65127
lfemur -23.8307 11.183 -23.5687
ltibia 41.1987
lfoot -16.047 -2.09036
ltoes -19.1544
21
root 1.52962 18.9157 1.67748 497.833 83.3701 -580.986
lowerback 6.71533 1.64102 2.07928
upperback 10.9183 2.83299 0.0415183
thorax 7.81508 1.82543 -1.07289
lowerneck 0.801115 -5.2865 4.20916
upperneck 9.54217 -6.67189 -3.68762
head 2.62589 -3.19439 -2.02808
rclavicle 3.26007e-014 -3.57812e-014
rhumerus -9.24027 -5.87586 -86.2123
rradius 34.7545
rwrist -3.69756
rhand -22.273 14.1704
rfingers 7.12502
rthumb 4.14519 -15.7691
lclavicle 3.26007e-014 -3.57812e-014
lhumerus -28.0491 -17.8251 90.6746
lradius 28.0389
lwrist -22.3533
lhand -15.9818 -10.0977
lfingers 7.12502
lthumb 10.2177 19.6342
rfemur -21.0651 -10.8021 13.9851
rtibia 40.6517
rfoot -11.6505 14.4798
rtoes 2.70548
lfemur -24.3748 10.9046 -23.5498
ltibia 40.6339
lfoot -15.6596 -2.24197
ltoes -18.2786
22
root 1.58716 18.886 1.69117 497.802 83.338 -580.914
lowerback 7.22593 1.66082 1.89732
upperback 11.1572 2.90313 -0.0174436
thorax 7.78663 1.86618 -1.04674
lowerneck 0.614525 -5.3209 4.03599
upperneck 9.30919 -6.75831 -3.40015
head 2.59263 -3.24294 -1.90594
rclavicle 7.15625e-015 -1.27222e-014
rhumerus -8.50737 -5.28555 -86.1656
rradius 35.0491
rwrist -3.60985
rhand -22.6299 14.8118
rfingers 7.12502
rthumb 3.80053 -15.134
lclavicle 7.15625e-015 -1.27222e-014
lhumerus -27.2557 -17.9545 90.3791
lradius 28.1927
lwrist -22.1156
lhand -16.6936 -10.39
lfingers 7.12502
lthumb 9.53093 19.3744
rfemur -21.0739 -10.7973 13.9781
rtibia 41.2455
rfoot -12.1 14.5315
rtoes 2.93196
lfemur -24.8974 10.5735 -23.5101
ltibia 40.1561
lfoot -15.1263 -2.33451
ltoes -18.0265
23
root 1.64085 18.8512 1.70451 497.888 83.2906 -580.732
lowerback 7.74628 1.65855 1.74138
upperback 11.4034 2.94706 -0.112474
thorax 7.7648 1.89871 -1.0737
lowerneck 0.467377 -5.32502 3.87617
upperneck 9.01651 -6.81207 -2.99415
head 2.53765 -3.2721 -1.745
rclavicle 5.1684e-014 -3.89618e-014
rhumerus -7.73161 -4.73997 -86.1531
rradius 35.2996
rwrist -3.446
rhand -22.9471 15.3936
rfingers 7.12502
rthumb 3.49416 -14.5575
lclavicle 5.1684e-014 -3.89618e-014
lhumerus -26.4094 -18.2349 90.0186
lradius 28.3821
lwrist -21.7583
lhand -17.3927 -10.4995
lfingers 7.12502
lthumb 8.85638 19.2947
rfemur -21.1332 -10.8106 13.9712
rtibia 41.8937
rfoot -12.5394 14.6146
rtoes 3.23499
lfemur -25.4154 10.1723 -23.4542
ltibia 39.7913
lfoot -14.5721 -2.4415
ltoes -18.2233
24
root 1.69159 18.8146 1.71793 497.977 83.2438 -580.537
lowerback 8.28651 1.63858 1.5753
upperback 11.6699 2.9702 -0.218681
thorax 7.75542 1.92241 -1.10714
lowerneck 0.279217 -5.29883 3.70427
upperneck 8.73327 -6.82949 -2.5257
head 2.49765 -3.28198 -1.56467
rclavicle -1.39149e-014 8.74653e-015
rhumerus -6.90862 -4.20546 -86.1743
rradius 35.5079
rwrist -3.26139
rhand -23.2785 15.7056
rfingers 7.12502
rthumb 3.17413 -14.2505
lclavicle -1.39149e-014 8.74653e-015
lhumerus -25.5087 -18.4466 89.6054
lradius 28.5805
lwrist -21.4054
lhand -18.0671 -10.6241
lfingers 7.12502
lthumb 8.2056 19.1966
rfemur -21.2213 -10.8058 13.9657
rtibia 42.6056
rfoot -13.0224 14.6763
rtoes 3.52192
lfemur -25.9009 9.74696 -23.3723
ltibia 39.5473
lfoot -14.0337 -2.5752
ltoes -18.2832
25
root 1.73897 18.7735 1.73065 498.121 83.1897 -580.309
lowerback 8.8299 1.60634 1.39744
upperback 11.9239 2.97463 -0.321056
thorax 7.73057 1.93534 -1.13065
lowerneck 0.0977358 -5.26974 3.54535
upperneck 8.46819 -6.8385 -2.07521
head 2.46221 -3.28697 -1.39365
rclavicle 2.78299e-015 2.38542e-015
rhumerus -6.09365 -3.62437 -86.1487
rradius 35.6947
rwrist -3.0971
rhand -23.4947 15.8196
rfingers 7.12502
rthumb 2.9654 -14.1395
lclavicle 2.78299e-015 2.38542e-015
lhumerus -24.5995 -18.633 89.1724
lradius 28.8035
lwrist -21.0706
lhand -18.7019 -10.7451
lfingers 7.12502
lthumb 7.59293 19.0986
rfemur -21.3717 -10.7973 13.9606
rtibia 43.3703
rfoot -13.4985 14.7412
rtoes 3.71441
lfemur -26.3834 9.30867 -23.2845
ltibia 39.4538
lfoot -13.5444 -2.73451
ltoes -18.2956
26
root 1.78378 18.7282 1.7424 497.927 83.1242 -580.401
lowerback 9.41144 1.59549 1.23298
upperback 12.1834 3.01169 -0.459018
thorax 7.69696 1.96887 -1.20138
lowerneck -0.0290723 -5.26841 3.41164
upperneck 8.14731 -6.88355 -1.58875
head 2.39824 -3.30858 -1.21354
rclavicle 0 1.98785e-014
rhumerus -5.27861 -3.14022 -86.1102
rradius 35.8599
rwrist -3.05655
rhand -23.5824 15.8584
rfingers 7.12502
rthumb 2.88067 -14.1019
lclavicle 0 1.98785e-014
lhumerus -23.6521 -18.9027 88.7235
lradius 29.0274
lwrist -20.7463
lhand -19.3628 -10.7679
lfingers 7.12502
lthumb 6.95499 19.0978
rfemur -21.5421 -10.7944 13.9072
rtibia 44.1927
rfoot -13.9771 14.8068
rtoes 3.97971
lfemur -26.7954 8.8098 -23.2109
ltibia 39.5192
lfoot -13.079 -2.83009
ltoes -18.032
27
root 1.8259 18.6806 1.75337 498.021 83.0477 -580.206
lowerback 9.98933 1.57344 1.08235
upperback 12.4511 3.03351 -0.569649
thorax 7.67536 1.99553 -1.25059
lowerneck -0.166197 -5.27595 3.30468
upperneck 7.85822 -6.9326 -1.18383
head 2.34361 -3.33292 -1.06614
rclavicle -4.77083e-015 -1.90833e-014
rhumerus -4.45318 -2.69784 -86.009
rradius 35.9745
rwrist -3.00401
rhand -23.6409 16.0171
rfingers 7.12502
rthumb 2.82421 -13.9439
lclavicle -4.77083e-015 -1.90833e-014
lhumerus -22.7005 -19.188 88.2991
lradius 29.2893
lwrist -20.4177
lhand -20.0013 -10.8264
lfingers 7.12502
lthumb 6.33853 19.0588
rfemur -21.742 -10.7938 13.8681
rtibia 45.0642
rfoot -14.4751 14.8986
rtoes 4.31524
lfemur -27.1928 8.25671 -23.1056
ltibia 39.7598
lfoot -12.6248 -2.93784
ltoes -17.4056
